<?xml version="1.0" standalone="no"?><!DOCTYPE svg PUBLIC "-//W3C//DTD SVG 1.1//EN" "http://www.w3.org/Graphics/SVG/1.1/DTD/svg11.dtd"><svg t="1508936677056" class="icon" style="" viewBox="0 0 1025 1024" version="1.1" xmlns="http://www.w3.org/2000/svg" p-id="899" xmlns:xlink="http://www.w3.org/1999/xlink" width="200.1953125" height="200"><defs><style type="text/css"></style></defs><path d="M808.639 736.559c-27.823-38.006-169.095-22.224-190.662-65.667-42.797-86.114-25.315-70.113 2.557-91.442 26.154-20.023 24.905-72.803 40.916-91.548 16.233-19.018 23.712-73.541 17.614-94.069-8.096-27.231-20.515-12.413-22.394-32.961-4.052-44.293 7.13-80.743-17.822-102.294-24.097-20.815-54.285-63.819-103.389-64.423-17.11-0.205-36.535 4.894-58.784 17.658-105.988-11.316-105.297 104.767-109.349 149.060-1.878 20.546-14.304 5.731-22.39 32.961-6.109 20.529 1.378 75.054 17.611 94.069 16.010 18.746 14.767 71.524 40.916 91.548 27.873 21.328 45.353 5.327 2.55 91.479-21.556 43.417-162.832 27.621-190.662 65.627-21.295 29.038-21.281 93.293-21.295 93.293h635.891c0 0.001 0-64.252-21.306-93.292z" p-id="900"></path></svg>