<?xml version="1.0" standalone="no"?><!DOCTYPE svg PUBLIC "-//W3C//DTD SVG 1.1//EN"
  "http://www.w3.org/Graphics/SVG/1.1/DTD/svg11.dtd">
<svg t="1511068923985" class="icon" style="" viewBox="0 0 1025 1024" version="1.1" xmlns="http://www.w3.org/2000/svg"
     p-id="10726" xmlns:xlink="http://www.w3.org/1999/xlink" width="200.1953125" height="200">
  <defs>
    <style type="text/css"></style>
  </defs>
  <path
    d="M63.992896 355.745004l627.457029 0 0 56.998169L63.992896 412.743173 63.992896 355.745004 63.992896 355.745004zM63.992896 355.745004M63.992896 491.127943l627.457029 0 0 56.96745L63.992896 548.095393 63.992896 491.127943 63.992896 491.127943zM63.992896 491.127943M63.992896 633.562952l627.457029 0 0 57.055511L63.992896 690.618463 63.992896 633.562952 63.992896 633.562952zM63.992896 633.562952M826.804193 790.33454 826.804193 241.808056c0-14.278213 7.138083-21.41732 21.385577-21.41732 14.222919 0 21.359978 7.139107 21.359978 21.41732L869.549748 790.33454c0 14.219847-7.138083 21.329259-21.359978 21.329259C833.941252 811.663798 826.804193 804.554387 826.804193 790.33454L826.804193 790.33454 826.804193 790.33454zM826.804193 790.33454M741.307963 704.83831c0-7.110436 0-14.220871 7.109412-14.220871 7.139107-7.168802 21.41732-7.168802 28.499085 7.109412l71.272287 92.606665 71.220064-92.606665c7.138083-7.109412 21.388649-14.278213 28.526732-7.109412 7.138083 7.109412 14.250566 21.330283 7.138083 28.498061l-85.523877 113.936948c-7.138083 7.169826-7.138083 7.169826-14.247494 7.169826-7.112484 0-14.250566 0-14.250566-7.169826l-92.634312-113.936948C748.417375 711.948746 741.307963 711.948746 741.307963 704.83831L741.307963 704.83831 741.307963 704.83831zM741.307963 704.83831M741.307963 320.164155c0-7.139107 0-7.139107 7.109412-14.278213l85.523877-113.965619c7.109412-7.110436 7.109412-7.110436 14.247494-7.110436 7.112484 0 14.222919 0 14.222919 7.110436l85.523877 113.965619c14.250566 7.139107 14.250566 21.359978 7.138083 28.499085-7.138083 7.140131-21.41732 7.140131-28.526732-7.139107l-71.244639-92.605641-71.21904 92.605641c-7.166754 7.139107-21.389673 14.278213-28.526732 7.139107C748.417375 334.385026 741.307963 327.245919 741.307963 320.164155L741.307963 320.164155 741.307963 320.164155zM741.307963 320.164155"
    p-id="10727"></path>
</svg>
