<?xml version="1.0" standalone="no"?><!DOCTYPE svg PUBLIC "-//W3C//DTD SVG 1.1//EN" "http://www.w3.org/Graphics/SVG/1.1/DTD/svg11.dtd"><svg t="1508936668091" class="icon" style="" viewBox="0 0 1025 1024" version="1.1" xmlns="http://www.w3.org/2000/svg" p-id="786" xmlns:xlink="http://www.w3.org/1999/xlink" width="200.1953125" height="200"><defs><style type="text/css"></style></defs><path d="M743.838 448.405h-77.279v-95.378c0-87.66-69.341-158.974-154.557-158.974-85.226 0-154.557 71.311-154.557 158.974v95.378h-77.279c-8.497 0-15.457 7.162-15.457 15.901v111.282c0 140.483 110.716 254.357 247.292 254.357s247.292-113.873 247.292-254.357v-111.282c0.001-8.739-6.959-15.901-15.455-15.901zM512.001 655.074c-25.598 0-46.37-21.348-46.37-47.696 0-26.336 20.772-47.685 46.37-47.685 25.611 0 46.365 21.348 46.365 47.685-0.001 26.347-20.755 47.696-46.365 47.696zM419.266 448.405v-95.378c0-52.603 41.591-95.388 92.735-95.388 51.137 0 92.738 42.785 92.738 95.388v95.378h-185.473z" p-id="787"></path></svg>