<?xml version="1.0" standalone="no"?><!DOCTYPE svg PUBLIC "-//W3C//DTD SVG 1.1//EN"
  "http://www.w3.org/Graphics/SVG/1.1/DTD/svg11.dtd">
<svg t="1511388159090" class="icon" style="" viewBox="0 0 1024 1024" version="1.1" xmlns="http://www.w3.org/2000/svg"
     p-id="1879" xmlns:xlink="http://www.w3.org/1999/xlink" width="200" height="200">
  <defs>
    <style type="text/css"></style>
  </defs>
  <path d="M716.8 288a32 32 0 0 1-32-32V153.6a32 32 0 0 1 64 0V256a32 32 0 0 1-32 32z" p-id="1880"
        fill="#ffffff"></path>
  <path
    d="M896 64a64 64 0 0 1 64 64v768a64 64 0 0 1-64 64H128a64 64 0 0 1-64-64V128a64 64 0 0 1 64-64h768m0-64H128a128 128 0 0 0-128 128v768a128 128 0 0 0 128 128h768a128 128 0 0 0 128-128V128a128 128 0 0 0-128-128z"
    p-id="1881" fill="#ffffff"></path>
  <path
    d="M806.4 64v217.6a64 64 0 0 1-64 64H281.6a64 64 0 0 1-64-64V64h588.8m64-64H153.6v281.6a128 128 0 0 0 128 128h460.8a128 128 0 0 0 128-128V0z"
    p-id="1882" fill="#ffffff"></path>
</svg>
